# xmcd CD database file
#
# Track frame offsets:
#	150
#	22093
#	40842
#	56990
#	74883
#	88815
#	107398
#	129015
#	150888
#
# Disc length: 2324 seconds
#
# Revision: 3
# Processed by: cddbd v1.5.2PL0 Copyright (c) Steve Scherf et al.
# Submitted via: CDex 1.70beta2
#
DISCID=72091209
DTITLE=吉田美奈子 - 愛は思うまま -Let's Do It-
DYEAR=1978
DGENRE=Pop
TTITLE0=愛は思うまま -Let's Do It-
TTITLE1=恋の手ほどき -I'll Teach You All About Love-
TTITLE2=時よ -Time-
TTITLE3=海 -The Sea-
TTITLE4=I'd Rather Leave While I'm In Love
TTITLE5=愛の炎 -Flames Of Love-
TTITLE6=猫 -Cat-
TTITLE7=雲のゆくえに -Clouds-
TTITLE8=影になりたい -I Wanna Be Your Shadow-
EXTD=YEAR: 1978
EXTT0=
EXTT1=
EXTT2=
EXTT3=
EXTT4=
EXTT5=
EXTT6=
EXTT7=
EXTT8=
PLAYORDER=
